<svg width="13" height="12" viewBox="0 0 13 12" fill="none" xmlns="http://www.w3.org/2000/svg">
<path d="M12.3496 1.39497e-06L0.649276 1.39497e-06C0.530816 0.000459276 0.4147 0.0407416 0.313427 0.116512C0.212154 0.192282 0.12956 0.300669 0.0745329 0.43001C0.0195063 0.559351 -0.00586819 0.704746 0.00114102 0.850545C0.00815023 0.996343 0.0472773 1.13702 0.114311 1.25744L5.96448 11.676C6.20693 12.108 6.79065 12.108 7.03376 11.676L12.8839 1.25744C12.9516 1.13727 12.9913 0.996523 12.9987 0.850482C13.0061 0.704441 12.9809 0.558695 12.9258 0.429081C12.8708 0.299466 12.7879 0.190939 12.6863 0.115292C12.5848 0.0396448 12.4683 -0.000229083 12.3496 1.39497e-06Z" fill="white"/>
</svg>
