<svg width="26" height="21" viewBox="0 0 26 21" fill="none" xmlns="http://www.w3.org/2000/svg">
<path d="M4.25 5.4375V2.75C4.25 1.375 5.375 0.25 6.75 0.25H19.25C20.625 0.25 21.75 1.375 21.75 2.75V5.45C20.3 5.9625 19.25 7.3375 19.25 8.9625V11.5H6.75V8.95C6.75 7.3375 5.7 5.95 4.25 5.4375ZM23 6.5C21.625 6.5 20.5 7.625 20.5 9V12.75H5.5V9C5.5 8.33696 5.23661 7.70107 4.76777 7.23223C4.29893 6.76339 3.66304 6.5 3 6.5C2.33696 6.5 1.70107 6.76339 1.23223 7.23223C0.763392 7.70107 0.5 8.33696 0.5 9V15.25C0.5 16.625 1.625 17.75 3 17.75V20.25H5.5V17.75H20.5V20.25H23V17.75C24.375 17.75 25.5 16.625 25.5 15.25V9C25.5 7.625 24.375 6.5 23 6.5Z" fill="#D9D9D9" fill-opacity="0.1"/>
</svg>
